#!OML:ASF E:\emotionWalksFemale\Project 1\Capture day 1\Session 1\Female1.ASF
:FULLY-SPECIFIED
:DEGREES
1952
root 11.01 14.9121 40.1418 -179.395 -47.1948 -173.391
lowerback 8.89564 -2.51712 -1.37216
upperback -3.35663 -3.86657 -2.90713
thorax -8.6784 -1.93351 -1.67819
lowerneck -0.624556 -12.4317 -18.0152
upperneck -0.273048 -17.815 23.4378
head 3.90512 -9.02158 9.0729
rclavicle -1.87355e-014 -3.18055e-015
rhumerus -34.1376 57.567 -120.645
rradius 33.5151
rwrist 12.4268
rhand 0.0348177 -56.3991
rfingers 7.12502
rthumb 25.6237 -804.695
lclavicle -1.87355e-014 -3.18055e-015
lhumerus -45.1511 -63.4087 138.744
lradius 104.867
lwrist 34.6562
lhand 27.1756 -19.5466
lfingers 7.12502
lthumb 51.1507 1.05032
rfemur -8.53785 1.48088 35.7646
rtibia 27.7152
rfoot -22.7053 -22.9625
rtoes 11.4838
lfemur -31.4984 21.4968 -21.3065
ltibia 52.1314
lfoot -29.0237 24.1893
ltoes 15.6735
1953
root 11.031 14.9177 40.1705 -179.216 -45.9879 -173.375
lowerback 8.75968 -2.37415 -1.51284
upperback -3.25874 -3.69026 -2.96413
thorax -8.48338 -1.84429 -1.69555
lowerneck -1.01175 -12.4818 -17.3284
upperneck -0.0599876 -17.8373 22.9955
head 3.92312 -9.00544 8.7889
rclavicle 2.28602e-015 9.38264e-014
rhumerus -33.9346 58.692 -120.321
rradius 34.0685
rwrist 10.5328
rhand -0.786428 -57.3575
rfingers 7.12502
rthumb 24.8369 -805.764
lclavicle 2.28602e-015 9.38264e-014
lhumerus -45.6856 -63.784 139.222
lradius 104.887
lwrist 34.1262
lhand 27.1057 -19.3553
lfingers 7.12502
lthumb 51.087 1.27744
rfemur -8.82427 2.1771 35.7166
rtibia 27.8256
rfoot -22.5516 -22.3073
rtoes 11.0464
lfemur -31.9624 21.5526 -21.0404
ltibia 52.8156
lfoot -29.2317 23.4008
ltoes 19.6331
1954
root 11.0523 14.917 40.1965 -179.122 -44.7749 -173.379
lowerback 8.68023 -2.20054 -1.77993
upperback -3.27222 -3.49082 -2.96562
thorax -8.43084 -1.73466 -1.58225
lowerneck -0.915199 -12.4002 -17.0076
upperneck 0.0306854 -17.7407 22.779
head 3.85881 -8.96265 8.69013
rclavicle -3.598e-014 -3.18055e-014
rhumerus -33.5934 58.2505 -119.763
rradius 34.1204
rwrist 10.2818
rhand -1.1084 -57.3659
rfingers 7.12502
rthumb 24.5283 -805.815
lclavicle -3.598e-014 -3.18055e-014
lhumerus -46.6072 -63.7676 140.104
lradius 104.902
lwrist 33.335
lhand 28.2837 -19.7353
lfingers 7.12502
lthumb 52.1575 0.276348
rfemur -8.90704 3.06559 35.6877
rtibia 27.7894
rfoot -22.3754 -21.9978
rtoes 10.0229
lfemur -32.2521 21.5991 -20.7578
ltibia 53.4486
lfoot -28.8732 23.3403
ltoes 20.0478
1955
root 11.0711 14.9162 40.2247 -179.098 -43.6827 -173.404
lowerback 8.77687 -2.08574 -1.99647
upperback -3.22786 -3.36774 -2.98001
thorax -8.42527 -1.66395 -1.49277
lowerneck -0.993992 -12.3577 -16.6899
upperneck 0.200973 -17.681 22.5235
head 3.85163 -8.92461 8.55991
rclavicle -5.31252e-014 -4.77083e-015
rhumerus -32.8384 57.1064 -118.891
rradius 33.9709
rwrist 11.1514
rhand -0.290283 -56.7906
rfingers 7.12502
rthumb 25.3123 -805.131
lclavicle -5.31252e-014 -4.77083e-015
lhumerus -47.0004 -63.7118 140.464
lradius 105.009
lwrist 32.914
lhand 28.4887 -20.4191
lfingers 7.12502
lthumb 52.3432 -0.519614
rfemur -8.83948 3.70632 35.6404
rtibia 27.5953
rfoot -22.0072 -21.7623
rtoes 8.36702
lfemur -32.3852 21.2596 -20.4136
ltibia 54.023
lfoot -28.6715 23.3359
ltoes 20.9533
1956
root 11.0863 14.9247 40.2549 -179.143 -42.6708 -173.355
lowerback 8.83684 -1.98471 -2.0756
upperback -3.13409 -3.24532 -3.02876
thorax -8.35544 -1.60258 -1.5185
lowerneck -0.846964 -12.2696 -16.2512
upperneck 0.135584 -17.5599 22.3054
head 3.7193 -8.87787 8.45228
rclavicle -1.1281e-014 -8.90555e-014
rhumerus -32.1499 56.1054 -118.153
rradius 33.885
rwrist 11.7557
rhand 0.102004 -56.4522
rfingers 7.12502
rthumb 25.6881 -804.739
lclavicle -1.1281e-014 -8.90555e-014
lhumerus -47.3583 -63.8385 140.849
lradius 104.989
lwrist 32.8443
lhand 28.3185 -20.6633
lfingers 7.12502
lthumb 52.189 -0.670555
rfemur -8.74799 4.28124 35.6238
rtibia 27.345
rfoot -21.3568 -21.3387
rtoes 7.5212
lfemur -32.4616 20.658 -19.9492
ltibia 54.5217
lfoot -28.3891 23.4902
ltoes 21.3285
1957
root 11.1023 14.931 40.2837 -179.392 -41.6132 -173.051
lowerback 8.94394 -1.83913 -2.01184
upperback -3.00365 -3.03998 -3.045
thorax -8.27726 -1.50579 -1.60208
lowerneck -0.806027 -12.2241 -15.642
upperneck -0.053069 -17.4765 22.1073
head 3.56447 -8.8501 8.31453
rclavicle 5.70015e-014 -6.67916e-014
rhumerus -31.615 55.316 -117.573
rradius 33.8927
rwrist 11.9964
rhand -0.0146647 -56.5567
rfingers 7.12502
rthumb 25.5763 -804.86
lclavicle 5.70015e-014 -6.67916e-014
lhumerus -47.6238 -64.2328 141.256
lradius 104.852
lwrist 33.1082
lhand 28.1441 -20.6658
lfingers 7.12502
lthumb 52.0309 -0.578498
rfemur -8.62031 4.93888 35.8354
rtibia 27.1254
rfoot -21.2577 -20.9451
rtoes 8.6584
lfemur -32.4192 20.061 -19.2032
ltibia 54.9237
lfoot -28.1962 23.4835
ltoes 21.4928
1958
root 11.119 14.9297 40.3119 -179.656 -40.6484 -172.739
lowerback 9.15432 -1.5799 -1.94897
upperback -2.81074 -2.6913 -3.13004
thorax -8.19201 -1.34161 -1.77901
lowerneck -1.13016 -12.395 -14.6954
upperneck -0.212444 -17.6572 21.781
head 3.48575 -8.93382 8.02395
rclavicle 4.85035e-014 2.8625e-014
rhumerus -30.6053 54.2497 -116.517
rradius 33.8166
rwrist 12.5399
rhand -0.204417 -56.571
rfingers 7.12502
rthumb 25.3946 -804.9
lclavicle 4.85035e-014 2.8625e-014
lhumerus -48.7742 -65.0798 142.335
lradius 105.022
lwrist 33.6248
lhand 27.4015 -20.3977
lfingers 7.12502
lthumb 51.3563 0.0826397
rfemur -8.5196 5.4672 36.0867
rtibia 27.0012
rfoot -20.9762 -20.9126
rtoes 6.28916
lfemur -32.2932 19.1583 -18.3977
ltibia 55.2335
lfoot -28.7218 22.9981
ltoes 23.4494
